<svg width="24" height="34" viewBox="0 0 24 34" fill="none" xmlns="http://www.w3.org/2000/svg">
<path fill-rule="evenodd" clip-rule="evenodd" d="M23.4856 9.29747C23.4996 11.0197 23.0067 12.6994 22.0823 14.0793C21.1126 16.061 17.97 17.6483 17.97 17.6483C16.7826 18.1849 15.5104 18.4492 14.2294 18.4254H6.56596V21.9449H23.2637V24.644H6.56596V31.6417L9.97896 31.9685V33.9994H0.660822V31.9685L4.07382 31.6417V24.5324L0.5 24.555V21.9688L4.07382 21.9064V2.40903L0.660822 2.08228V0.0274334H13.3288C16.0094 -0.168175 18.6685 0.672979 20.8577 2.40903C22.6573 4.11596 23.6309 6.6681 23.4856 9.29747ZM19.0671 4.20305C17.4037 2.86956 15.3718 2.23273 13.3288 2.40457H6.56592V16.0406H13.0357C15.786 16.0406 17.7964 15.4257 19.0671 14.1957C20.34 12.961 21.0411 11.1487 20.9732 9.2691C21.0702 7.34348 20.3673 5.47517 19.0671 4.20305Z" fill="white"/>
</svg>
