<svg xmlns="http://www.w3.org/2000/svg" xmlns:xlink="http://www.w3.org/1999/xlink"><symbol id="icon-check" viewBox="0 0 14 11">
<path d="M4.91917 10.7918L0.208876 6.01232C-0.0679533 5.73187 -0.0698605 5.27521 0.204617 4.99236C0.479094 4.7095 0.926016 4.70755 1.20285 4.988L5.38279 9.22558L12.7615 0.247703C13.0175 -0.0527826 13.4635 -0.0842871 13.7576 0.177335C14.0517 0.438958 14.0825 0.894636 13.8264 1.19512L5.95077 10.7526C5.82345 10.9032 5.64057 10.9928 5.44597 11C5.23001 11.0008 5.05138 10.9257 4.91917 10.7918Z" fill="#7CE187"/>
<path d="M4.91917 10.7918L0.208876 6.01232C-0.0679533 5.73187 -0.0698605 5.27521 0.204617 4.99236C0.479094 4.7095 0.926016 4.70755 1.20285 4.988L5.38279 9.22558L12.7615 0.247703C13.0175 -0.0527826 13.4635 -0.0842871 13.7576 0.177335C14.0517 0.438958 14.0825 0.894636 13.8264 1.19512L5.95077 10.7526C5.82345 10.9032 5.64057 10.9928 5.44597 11C5.23001 11.0008 5.05138 10.9257 4.91917 10.7918Z" fill="#3D3BFF"/>
</symbol><symbol id="icon-rub-big" viewBox="0 0 51 107">
<path d="M3.66406 84.1914V79.2695L10.0312 78.1758V33.3711L3.66406 32.2773V27.3164H29.7969C35.8646 27.3164 40.5781 28.8789 43.9375 32.0039C47.3229 35.1289 49.0156 39.2435 49.0156 44.3477C49.0156 49.5039 47.3229 53.6315 43.9375 56.7305C40.5781 59.8294 35.8646 61.3789 29.7969 61.3789H17.7266V78.1758L24.0938 79.2695V84.1914H3.66406ZM17.7266 55.3633H29.7969C33.651 55.3633 36.5286 54.3346 38.4297 52.2773C40.3568 50.194 41.3203 47.5768 41.3203 44.4258C41.3203 41.2747 40.3568 38.6445 38.4297 36.5352C36.5286 34.4258 33.651 33.3711 29.7969 33.3711H17.7266V55.3633Z" fill="white"/>
<rect x="3.5" y="66.1914" width="42" height="4.5" fill="white"/>
</symbol><symbol id="icon-rub-med" viewBox="0 0 24 34">
<path fill-rule="evenodd" clip-rule="evenodd" d="M23.4856 9.29747C23.4996 11.0197 23.0067 12.6994 22.0823 14.0793C21.1126 16.061 17.97 17.6483 17.97 17.6483C16.7826 18.1849 15.5104 18.4492 14.2294 18.4254H6.56596V21.9449H23.2637V24.644H6.56596V31.6417L9.97896 31.9685V33.9994H0.660822V31.9685L4.07382 31.6417V24.5324L0.5 24.555V21.9688L4.07382 21.9064V2.40903L0.660822 2.08228V0.0274334H13.3288C16.0094 -0.168175 18.6685 0.672979 20.8577 2.40903C22.6573 4.11596 23.6309 6.6681 23.4856 9.29747ZM19.0671 4.20305C17.4037 2.86956 15.3718 2.23273 13.3288 2.40457H6.56592V16.0406H13.0357C15.786 16.0406 17.7964 15.4257 19.0671 14.1957C20.34 12.961 21.0411 11.1487 20.9732 9.2691C21.0702 7.34348 20.3673 5.47517 19.0671 4.20305Z" fill="white"/>
</symbol><symbol id="icon-rub-pale" viewBox="0 0 22 27">
<path opacity="0.4" fill-rule="evenodd" clip-rule="evenodd" d="M21.4877 7.38341C21.5005 8.75103 21.0504 10.085 20.2064 11.1807C19.3209 12.7545 16.4515 14.015 16.4515 14.015C15.3673 14.4411 14.2057 14.651 13.0361 14.6321H6.03871V17.427H21.2851V19.5704H6.03871V25.1274L9.15505 25.3869V26.9997H0.646843V25.3869L3.76318 25.1274V19.4818L0.5 19.4997V17.446L3.76318 17.3964V1.91317L0.646843 1.65368V0.0218931H12.2137C14.6614 -0.133443 17.0893 0.534534 19.0882 1.91317C20.7313 3.26867 21.6204 5.29538 21.4877 7.38341ZM17.4537 3.33769C15.9348 2.27874 14.0795 1.77302 12.2141 1.90948H6.03906V12.7381H11.9465C14.4577 12.7381 16.2934 12.2498 17.4537 11.273C18.6159 10.2925 19.2561 8.85335 19.194 7.36073C19.2826 5.83156 18.6408 4.3479 17.4537 3.33769Z" fill="white"/>
</symbol><symbol id="icon-sale" viewBox="0 0 110 120">
<path fill-rule="evenodd" clip-rule="evenodd" d="M0 0.808594H110V105.084L55 119.809L0 105.084V0.808594Z" fill="#7CE187"/>
<path fill-rule="evenodd" clip-rule="evenodd" d="M0 0.808594H110V105.084L55 119.809L0 105.084V0.808594Z" fill="black"/>
</symbol></svg>