<svg width="51" height="106" viewBox="0 0 40 85" fill="none" xmlns="http://www.w3.org/2000/svg">
<path d="M3.66406 84V79.0781L10.0312 77.9844V33.1797L3.66406 32.0859V27.125H29.7969C35.8646 27.125 40.5781 28.6875 43.9375 31.8125C47.3229 34.9375 49.0156 39.0521 49.0156 44.1562C49.0156 49.3125 47.3229 53.4401 43.9375 56.5391C40.5781 59.638 35.8646 61.1875 29.7969 61.1875H17.7266V77.9844L24.0938 79.0781V84H3.66406ZM17.7266 55.1719H29.7969C33.651 55.1719 36.5286 54.1432 38.4297 52.0859C40.3568 50.0026 41.3203 47.3854 41.3203 44.2344C41.3203 41.0833 40.3568 38.4531 38.4297 36.3438C36.5286 34.2344 33.651 33.1797 29.7969 33.1797H17.7266V55.1719Z" fill="white"/>
<rect x="3.5" y="66" width="42" height="4.5" fill="white"/>
</svg>
