<svg width="51" height="107" viewBox="0 0 51 107" fill="none" xmlns="http://www.w3.org/2000/svg">
<path d="M3.66406 84.1914V79.2695L10.0312 78.1758V33.3711L3.66406 32.2773V27.3164H29.7969C35.8646 27.3164 40.5781 28.8789 43.9375 32.0039C47.3229 35.1289 49.0156 39.2435 49.0156 44.3477C49.0156 49.5039 47.3229 53.6315 43.9375 56.7305C40.5781 59.8294 35.8646 61.3789 29.7969 61.3789H17.7266V78.1758L24.0938 79.2695V84.1914H3.66406ZM17.7266 55.3633H29.7969C33.651 55.3633 36.5286 54.3346 38.4297 52.2773C40.3568 50.194 41.3203 47.5768 41.3203 44.4258C41.3203 41.2747 40.3568 38.6445 38.4297 36.5352C36.5286 34.4258 33.651 33.3711 29.7969 33.3711H17.7266V55.3633Z" fill="white"/>
<rect x="3.5" y="66.1914" width="42" height="4.5" fill="white"/>
</svg>
